# xmcd
# 
# Track frame offsets:
#     150
#     21706
#     42871
#     66806
#     85401
#     106323
#     125093
#     145630
#     164643
#     183595
#     202275
#     220965
#     239190
#     257872
#     276472
#     290720
#     314767
# 
# Disc length: 4428
# 
# Revision: 1
# Processed by: cddbd v1.5.2PL0 Copyright (c) Steve Scherf et al.
# Submitted via: fre:ac v1.0.17
# 
DISCID=2a114a11
DTITLE=Adolescent's Orquesta - Super Exitos
DYEAR=2001
DGENRE=Salsa
TTITLE0=Me nego
TTITLE1=Persona ideal
TTITLE2=Si te marchas (Voy a Ilorar)
TTITLE3=Anhelo
TTITLE4=Huellas
TTITLE5=Arrepentida
TTITLE6=Clase social
TTITLE7=Celos y distancia
TTITLE8=Comencemos hoy
TTITLE9=Mi error
TTITLE10=Hoy aprendi
TTITLE11=LLamame
TTITLE12=Dame un poco mas
TTITLE13=No puedo ser tu amigo
TTITLE14=Amantes discretos
TTITLE15=Cruel decision
TTITLE16=Horas lindas
EXTD=YEAR: 2001
EXTT0=
EXTT1=
EXTT2=
EXTT3=
EXTT4=
EXTT5=
EXTT6=
EXTT7=
EXTT8=
EXTT9=
EXTT10=
EXTT11=
EXTT12=
EXTT13=
EXTT14=
EXTT15=
EXTT16=
PLAYORDER=
